<svg id="Group_990" data-name="Group 990" xmlns="http://www.w3.org/2000/svg" xmlns:xlink="http://www.w3.org/1999/xlink" width="158" height="219.56" viewBox="0 0 158 219.56">
  <defs>
    <clipPath id="clip-path">
      <rect id="Rectangle_394" data-name="Rectangle 394" width="158" height="219.56" fill="none"/>
    </clipPath>
  </defs>
  <g id="Group_989" data-name="Group 989" clip-path="url(#clip-path)">
    <path id="Path_2278" data-name="Path 2278" d="M186.8,319.908a2.323,2.323,0,1,0-2.776-1.728,2.324,2.324,0,0,0,2.776,1.728" transform="translate(-69.424 -118.999)" fill="#fff"/>
    <path id="Path_2279" data-name="Path 2279" d="M138,349.827a2.324,2.324,0,1,0-2.307-2.323A2.316,2.316,0,0,0,138,349.827" transform="translate(-51.208 -130.267)" fill="#fff"/>
    <path id="Path_2280" data-name="Path 2280" d="M23.048,315.323H2.283v23.236H23.048a2.315,2.315,0,0,0,2.307-2.322v-18.59a2.315,2.315,0,0,0-2.307-2.324M6.9,319.97H20.74v13.941H6.9Z" transform="translate(-0.862 -118.999)" fill="#fff"/>
    <path id="Path_2281" data-name="Path 2281" d="M67.834,333.912H51.684V315.324H49.376a2.316,2.316,0,0,0-2.307,2.324v18.589a2.316,2.316,0,0,0,2.307,2.323H67.834a2.315,2.315,0,0,0,2.307-2.323v-2.325Z" transform="translate(-17.763 -119)" fill="#fff"/>
    <path id="Path_2282" data-name="Path 2282" d="M111.985,319.97h2.307v-2.324a2.315,2.315,0,0,0-2.307-2.324H93.527a2.316,2.316,0,0,0-2.307,2.324v18.59a2.316,2.316,0,0,0,2.307,2.322h18.458a2.315,2.315,0,0,0,2.307-2.322v-2.325H95.835V319.97Z" transform="translate(-34.425 -118.999)" fill="#fff"/>
    <path id="Path_2283" data-name="Path 2283" d="M150.512,317.648V338.56h4.614V315.324h-2.307a2.316,2.316,0,0,0-2.307,2.324" transform="translate(-56.802 -119)" fill="#fff"/>
    <path id="Path_2284" data-name="Path 2284" d="M157.947,345.233v4.614h9.986a2.316,2.316,0,0,0,2.324-2.307v-2.307Z" transform="translate(-59.607 -130.287)" fill="#fff"/>
    <path id="Path_2285" data-name="Path 2285" d="M184.463,328.844v13.941h4.614V326.52H186.77a2.316,2.316,0,0,0-2.307,2.324" transform="translate(-69.614 -123.225)" fill="#fff"/>
    <path id="Path_2286" data-name="Path 2286" d="M211.716,326.516h-5.194a2.315,2.315,0,0,0-2.3,2.324l0-.026v-2.3h-2.282l-.022,0a2.316,2.316,0,0,0-2.307,2.324v13.942h4.615v-9.294a2.314,2.314,0,0,1,2.3-2.325h2.307v11.619h4.614V326.516Z" transform="translate(-75.329 -123.224)" fill="#fff"/>
    <path id="Path_2287" data-name="Path 2287" d="M240.788,326.941H239.06a.306.306,0,0,0-.006-.072,2.32,2.32,0,0,0,1.733-2.251v-4.648h-2.307a2.32,2.32,0,0,0-2.307,2.324v2.324h-2.307v-9.291h-2.307a2.315,2.315,0,0,0-2.307,2.319v20.913h4.615v-6.97a2.307,2.307,0,1,1,4.615,0v4.648a2.314,2.314,0,0,0,2.307,2.322H243.1v-9.293a2.315,2.315,0,0,0-2.307-2.325" transform="translate(-86.517 -119.001)" fill="#fff"/>
    <path id="Path_2288" data-name="Path 2288" d="M76.493,180.535h-.2a18.125,18.125,0,0,1-7.372-1.527.95.95,0,0,1-.205-.088l-9.137-5.365-55.789-32.6C1.171,139.415-.2,137.21.024,134.9l0-5.483A1,1,0,0,1,0,129.214V54.579a14.463,14.463,0,0,1,.473-4.293,20.425,20.425,0,0,1,4.506-7.864,14.964,14.964,0,0,1,3.354-2.747L8.6,39.54,73.921,1.612a2.019,2.019,0,0,1,.261-.109A17.428,17.428,0,0,1,81.71,0a18.125,18.125,0,0,1,7.374,1.527.911.911,0,0,1,.205.089L98.424,6.98l55.789,32.6c2.618,1.544,3.989,3.75,3.763,6.054l0,5.442c.008.067.02.209.02.247v74.636a14.688,14.688,0,0,1-.473,4.29,19.85,19.85,0,0,1-1.812,4.188,19.551,19.551,0,0,1-2.7,3.678,15.019,15.019,0,0,1-3.352,2.746l-.26.134L84.081,178.924a1.978,1.978,0,0,1-.261.108A17.509,17.509,0,0,1,76.493,180.535Zm-6.868-3.464.064.027a16.01,16.01,0,0,0,6.621,1.377,15.214,15.214,0,0,0,6.754-1.352l9.147-5.227,56.475-32.841a12.96,12.96,0,0,0,2.842-2.35,17.5,17.5,0,0,0,2.419-3.3,17.726,17.726,0,0,0,1.624-3.75,12.8,12.8,0,0,0,.385-3.7V51.322a.78.78,0,0,1-.02-.177V45.532c.149-1.572-.856-3.056-2.754-4.175L88.377,3.465l-.064-.027A16.017,16.017,0,0,0,81.69,2.06a15.28,15.28,0,0,0-6.752,1.353L65.79,8.639,9.311,41.482a12.948,12.948,0,0,0-2.839,2.348,18.381,18.381,0,0,0-4.041,7.051,12.769,12.769,0,0,0-.385,3.7v74.635c0,.009.018.2.018.207V135c-.148,1.573.858,3.058,2.751,4.174Z" transform="translate(0 0)" fill="#fff"/>
    <path id="Path_2289" data-name="Path 2289" d="M151.568,87.351a4.8,4.8,0,0,0-1.413-1.789,1.618,1.618,0,0,0-.19-.141h0a2.547,2.547,0,0,0-.27-.173,2.47,2.47,0,0,0-.451-.227h0l-.038-.016L136.779,78.02l-.018-.008c-.06-.04-.129-.083-.225-.143a4.473,4.473,0,0,0-2.777-.577,7.1,7.1,0,0,0-3.073,1.046L85.037,104.872,72.051,112.09c-.026.012-.052.026-.078.04L26.914,138.566a5.854,5.854,0,0,0-3.265,4.4,1.366,1.366,0,0,0-.035.275l0,14.859c-.2,2.027.986,3.952,3.243,5.282L79.388,194.1a1.349,1.349,0,0,0,.182.079,15.3,15.3,0,0,0,6.3,1.273,14.734,14.734,0,0,0,6.24-1.319l52.925-30.712c.02-.01.215-.11.233-.121a12.544,12.544,0,0,0,2.8-2.29,16.179,16.179,0,0,0,2.239-3.053,16.48,16.48,0,0,0,1.5-3.47,12.032,12.032,0,0,0,.4-3.589V90.52a7.419,7.419,0,0,0-.633-3.169m-25.7,26.961,10.87-6.306v41.42l-10.812-6.338ZM124.9,144.87l8.722,5.113,1.761,1.033L100.033,171.64V159.282Zm-1.02-1.783-23.846,13.821v-27.79l23.789-13.812ZM84.485,121.606v71.313a11.779,11.779,0,0,1-3.933-1l-.058-.026-6.677-3.923v-72.62ZM71.367,145.772v10.493L62.373,151Zm0-15.1v12.253l-11.438,6.651-10.494-6.14ZM46.38,143.394c0,.012,0,.022,0,.034s0,.013,0,.021l-.045-.027ZM26.064,147.75a8.49,8.49,0,0,0,.8.532l44.507,26.046v12.208L28.093,161.252c-1.391-.82-2.133-1.888-2.029-3.028ZM135.443,80.093a1.294,1.294,0,0,0,.318.182l8.888,5a9.165,9.165,0,0,0-.824.435l-58.11,33.76-10.634-6.24,11.16-6.2,45.68-26.552a4.8,4.8,0,0,1,2.068-.72,2.181,2.181,0,0,1,1.454.342" transform="translate(-8.905 -29.159)" fill="#fff"/>
  </g>
</svg>
